<?xml version="1.0" encoding="UTF-8" standalone="no"?>
<svg width="38px" height="35px" viewBox="0 0 38 35" version="1.1" xmlns="http://www.w3.org/2000/svg" xmlns:xlink="http://www.w3.org/1999/xlink">
    <!-- Generator: Sketch 3.7.2 (28276) - http://www.bohemiancoding.com/sketch -->
    <title>Group 3</title>
    <desc>Created with Sketch.</desc>
    <defs>
        <rect id="path-1" x="2.078125" y="3.13333333" width="33.84375" height="24.6857143"></rect>
        <mask id="mask-2" maskContentUnits="userSpaceOnUse" maskUnits="objectBoundingBox" x="0" y="0" width="33.84375" height="24.6857143" fill="white">
            <use xlink:href="#path-1"></use>
        </mask>
    </defs>
    <g id="Page-1" stroke="none" stroke-width="1" fill="none" fill-rule="evenodd">
        <g id="Desktop" transform="translate(-41.000000, -20.000000)">
            <g id="Group-3" transform="translate(41.000000, 20.000000)">
                <polygon id="Triangle-2" stroke="#FFFFFF" points="19 32 20 34 18 34"></polygon>
                <path d="M19,28.2761905 L19,31.6285714" id="Line" stroke="#FFFFFF" stroke-linecap="square"></path>
                <rect id="Rectangle-37" fill="#FFFFFF" x="1.1875" y="26.9047619" width="35.625" height="2" rx="1.2"></rect>
                <rect id="Rectangle-35" fill="#FFFFFF" x="0" y="0" width="38" height="4" rx="1.2"></rect>
                <use id="Rectangle-36" stroke="#FFFFFF" mask="url(#mask-2)" stroke-width="2" fill-opacity="0.200000003" fill="#FFFFFF" xlink:href="#path-1"></use>
                <path d="M16.2081755,8.00952381 L13.5063131,9.32445158 L11.28125,11.9543071 L19.068971,22.6380952 L27.015625,11.9543071 L24.7905619,9.32445158 L21.9297664,8.00952381 L18.9895044,8.00952381 L16.2081755,8.00952381 L16.2081755,8.00952381 Z M16.3671086,10.8037453 L14.7777778,14.5841627 L11.28125,11.9543071 L13.5063131,9.32445158 L16.3671086,10.8037453 L16.3671086,10.8037453 Z M21.9297664,10.8037453 L23.5190972,14.5841627 L27.015625,11.9543071 L24.7905619,9.32445158 L21.9297664,10.8037453 L21.9297664,10.8037453 Z M24.7905619,9.32445158 L21.9297664,10.8037453 L16.3671086,10.8037453 L13.5063131,9.32445158 M14.7777778,14.5841627 L19.068971,22.6380952 L23.5190972,14.5841627 L14.7777778,14.5841627 L14.7777778,14.5841627 Z" id="Combined-Shape" stroke="#FFFFFF"></path>
            </g>
        </g>
    </g>
</svg>