<?xml version="1.0" encoding="UTF-8" standalone="no"?>
<svg width="167px" height="167px" viewBox="0 0 167 167" version="1.1" xmlns="http://www.w3.org/2000/svg" xmlns:xlink="http://www.w3.org/1999/xlink" xmlns:sketch="http://www.bohemiancoding.com/sketch/ns">
    <!-- Generator: Sketch 3.3.3 (12072) - http://www.bohemiancoding.com/sketch -->
    <title>tweetcircle-active</title>
    <desc>Created with Sketch.</desc>
    <defs></defs>
    <g id="Page-1" stroke="none" stroke-width="1" fill="none" fill-rule="evenodd" sketch:type="MSPage">
        <g id="Landing" sketch:type="MSArtboardGroup" transform="translate(-618.000000, -2649.000000)" fill="#FA9402">
            <g id="Share" sketch:type="MSLayerGroup" transform="translate(0.000000, 2622.000000)">
                <g id="Big-Tweet-Copy" transform="translate(618.000000, 27.000000)" sketch:type="MSShapeGroup">
                    <path d="M83.5,167 C129.615779,167 167,129.615779 167,83.5 C167,37.3842211 129.615779,0 83.5,0 C37.3842211,0 0,37.3842211 0,83.5 C0,129.615779 37.3842211,167 83.5,167 Z M82.3492309,54.8865566 L82.4802542,57.1444415 L80.2965316,56.8679659 C72.3477817,55.8081423 65.403544,52.2139581 59.5074932,46.1775721 L56.6249793,43.1824186 L55.8825138,45.3942241 C54.3102335,50.3247076 55.3147458,55.5316666 58.5903296,59.0336921 C60.3373077,60.969022 59.9442377,61.2454978 56.9307006,60.0935157 C55.8825138,59.7248813 54.9653503,59.4484056 54.8780013,59.5866436 C54.5722803,59.9091986 55.6204671,64.1024132 56.4502816,65.7612675 C57.5858174,68.0652318 59.9005632,70.3231165 62.4336812,71.6594158 L64.5737293,72.7192394 L62.0406112,72.7653186 C59.5948419,72.7653186 59.5074932,72.8113979 59.7695399,73.7790628 C60.6430289,76.7742163 64.0933105,79.9536869 67.9366621,81.3360654 L70.6444779,82.3037304 L68.2860576,83.7782674 C64.7921016,85.8979144 60.6867032,87.0959759 56.5813049,87.1881345 C54.6159546,87.2342136 53,87.4185307 53,87.5567687 C53,88.0175614 58.3282829,90.5980014 61.429169,91.6117456 C70.7318269,94.6068991 81.7814629,93.316679 90.0796086,88.2018787 C95.9756595,84.5616151 101.87171,77.3271678 104.623201,70.3231165 C106.108132,66.5906946 107.593063,59.7709606 107.593063,56.4993315 C107.593063,54.3796845 107.724087,54.1032088 110.169856,51.5688483 C111.611113,50.0943111 112.965021,48.4815362 113.227067,48.0207432 C113.663812,47.1452369 113.620138,47.1452369 111.392741,47.9285847 C107.680412,49.3109633 107.156319,49.1266462 108.990646,47.0530784 C110.344554,45.5785412 111.960508,42.9059429 111.960508,42.1225949 C111.960508,41.9843572 111.305392,42.2147537 110.562926,42.6294671 C109.776786,43.09026 108.029808,43.7814492 106.719574,44.1961628 L104.361154,44.9795105 L102.221106,43.4588942 C101.041896,42.6294671 99.3822666,41.7078816 98.5087776,41.4314057 C96.2813805,40.7862959 92.8747734,40.8784545 90.8657487,41.6157228 C85.4064423,43.6892907 81.9561607,49.0344877 82.3492309,54.8865566 C82.3492309,54.8865566 81.9561607,49.0344877 82.3492309,54.8865566 Z" id="tweetcircle-active"></path>
                </g>
            </g>
        </g>
    </g>
</svg>